<?xml version="1.0" ?>
<svg width="256" height="256" viewBox="0 0 256 256" xmlns="http://www.w3.org/2000/svg">
    <rect width="256" height="256" fill="#222"/>
    <rect x="32" y="32" width="48" height="16" fill="#00ffff" rx="4" ry="4"/>
    <rect x="96" y="32" width="128" height="16" fill="#00ffff" rx="4" ry="4"/>

    <rect x="32" y="80" width="48" height="16" fill="#00ff00" rx="4" ry="4"/>
    <rect x="64" y="80" width="16" height="16" fill="#00ff00"/>
    <rect x="80" y="80" width="16" height="16" fill="#ffffff"/>
    <rect x="80" y="80" width="80" height="16" fill="#ffffff" rx="4" ry="4"/>
    <rect x="176" y="80" width="16" height="16" fill="#ffffff" rx="4" ry="4"/>
    <rect x="208" y="80" width="16" height="16" fill="#ffffff" rx="4" ry="4"/>

    <rect x="32" y="112" width="48" height="16" fill="#00ff00" rx="4" ry="4"/>
    <rect x="64" y="112" width="16" height="16" fill="#00ff00"/>
    <rect x="80" y="112" width="16" height="16" fill="#ffffff"/>
    <rect x="80" y="112" width="80" height="16" fill="#ffffff" rx="4" ry="4"/>
    <rect x="176" y="112" width="16" height="16" fill="#ffffff" rx="4" ry="4"/>
    <rect x="208" y="112" width="16" height="16" fill="#ffffff" rx="4" ry="4"/>

    <rect x="32" y="144" width="48" height="16" fill="#00ff00" rx="4" ry="4"/>
    <rect x="64" y="144" width="16" height="16" fill="#00ff00"/>
    <rect x="80" y="144" width="16" height="16" fill="#ffffff"/>
    <rect x="80" y="144" width="80" height="16" fill="#ffffff" rx="4" ry="4"/>
    <rect x="176" y="144" width="16" height="16" fill="#ffffff" rx="4" ry="4"/>
    <rect x="208" y="144" width="16" height="16" fill="#ffffff" rx="4" ry="4"/>

    <rect x="32" y="176" width="48" height="16" fill="#00ff00" rx="4" ry="4"/>
    <rect x="64" y="176" width="16" height="16" fill="#00ff00"/>
    <rect x="80" y="176" width="16" height="16" fill="#ffffff"/>
    <rect x="80" y="176" width="80" height="16" fill="#ffffff" rx="4" ry="4"/>
    <rect x="176" y="176" width="16" height="16" fill="#ffffff" rx="4" ry="4"/>
    <rect x="208" y="176" width="16" height="16" fill="#ffffff" rx="4" ry="4"/>

    <rect x="32" y="208" width="48" height="16" fill="#00ff00" rx="4" ry="4"/>
    <rect x="64" y="208" width="16" height="16" fill="#00ff00"/>
    <rect x="80" y="208" width="16" height="16" fill="#ffffff"/>
    <rect x="80" y="208" width="80" height="16" fill="#ffffff" rx="4" ry="4"/>
    <rect x="176" y="208" width="16" height="16" fill="#ffffff" rx="4" ry="4"/>
    <rect x="208" y="208" width="16" height="16" fill="#ffffff" rx="4" ry="4"/>
</svg>